<svg width="39" height="50" viewBox="0 0 39 50" fill="none" xmlns="http://www.w3.org/2000/svg">
<path d="M19.5 1.47559C24.621 7.04171 29.1542 11.7296 32.4814 16.2803C35.9494 21.0235 38 25.4864 38 30.4395C37.9998 40.3707 29.7406 48.4639 19.5 48.4639C9.25943 48.4639 1.0002 40.3707 1 30.4395C1 25.4864 3.05058 21.0235 6.51855 16.2803C9.84582 11.7296 14.379 7.04171 19.5 1.47559Z" fill="white" stroke="#397AC0" stroke-width="2"/>
<path d="M14.5854 30.9138C18.6568 30.9138 21.9573 27.7197 21.9573 23.7797C21.9573 19.8396 18.6568 16.6455 14.5854 16.6455C10.514 16.6455 7.21344 19.8396 7.21344 23.7797C7.21344 27.7197 10.514 30.9138 14.5854 30.9138Z" stroke="#397AC0" stroke-width="2" stroke-linecap="round" stroke-linejoin="round"/>
<path d="M26.9826 26.5977C28.144 27.0167 29.1775 27.7124 29.9875 28.6204C30.7976 29.5284 31.3579 30.6195 31.6167 31.7926C31.8756 32.9657 31.8246 34.1831 31.4684 35.332C31.1123 36.481 30.4625 37.5246 29.5792 38.3662C28.6959 39.2077 27.6076 39.8202 26.4149 40.1469C25.2222 40.4735 23.9636 40.5039 22.7556 40.2351C21.5475 39.9663 20.429 39.4071 19.5035 38.6092C18.578 37.8112 17.8753 36.8003 17.4604 35.6699" stroke="#397AC0" stroke-width="2" stroke-linecap="round" stroke-linejoin="round"/>
<path d="M13.3567 21.4014H14.5853V26.1575" stroke="#397AC0" stroke-width="2" stroke-linecap="round" stroke-linejoin="round"/>
<path d="M25.287 30.7715L26.1471 31.6157L22.6823 34.9687" stroke="#397AC0" stroke-width="2" stroke-linecap="round" stroke-linejoin="round"/>
</svg>
