<svg width="34" height="44" viewBox="0 0 34 44" fill="none" xmlns="http://www.w3.org/2000/svg">
<rect x="1" y="13" width="32" height="30" rx="1" fill="white" stroke="#397AC0" stroke-width="2"/>
<path d="M11.8293 30.6462C15.9007 30.6462 19.2012 27.4522 19.2012 23.5121C19.2012 19.572 15.9007 16.3779 11.8293 16.3779C7.75787 16.3779 4.45734 19.572 4.45734 23.5121C4.45734 27.4522 7.75787 30.6462 11.8293 30.6462Z" stroke="#397AC0" stroke-width="2" stroke-linecap="round" stroke-linejoin="round"/>
<path d="M24.2264 26.3301C25.3879 26.7491 26.4214 27.4448 27.2314 28.3528C28.0414 29.2609 28.6018 30.3519 28.8606 31.525C29.1195 32.6981 29.0685 33.9155 28.7123 35.0645C28.3562 36.2135 27.7064 37.257 26.8231 38.0986C25.9398 38.9402 24.8515 39.5526 23.6588 39.8793C22.4661 40.206 21.2075 40.2363 19.9995 39.9675C18.7914 39.6988 17.6729 39.1396 16.7474 38.3416C15.8219 37.5436 15.1192 36.5327 14.7043 35.4023" stroke="#397AC0" stroke-width="2" stroke-linecap="round" stroke-linejoin="round"/>
<path d="M10.6006 21.1338H11.8292V25.8899" stroke="#397AC0" stroke-width="2" stroke-linecap="round" stroke-linejoin="round"/>
<path d="M22.5309 30.5039L23.391 31.3481L19.9261 34.7012" stroke="#397AC0" stroke-width="2" stroke-linecap="round" stroke-linejoin="round"/>
<path d="M17.7437 12.0516C17.8088 10.3448 17.8558 8.90598 18.051 7.64949C18.2815 6.16492 18.7009 5.10338 19.4859 4.31835C21.0738 2.73058 23.7152 2.73886 25.3858 4.4095C27.0563 6.08016 27.064 8.72091 25.4763 10.3087C24.6912 11.0938 23.6298 11.5131 22.1451 11.7437C20.8888 11.9388 19.4503 11.9866 17.7437 12.0516Z" fill="white" stroke="#397AC0" stroke-width="2"/>
<path d="M17.0515 12.0516C16.9864 10.3448 16.9393 8.90598 16.7442 7.64949C16.5136 6.16492 16.0943 5.10338 15.3093 4.31835C13.7214 2.73058 11.08 2.73886 9.40936 4.4095C7.73891 6.08016 7.73118 8.72091 9.3189 10.3087C10.104 11.0938 11.1654 11.5131 12.65 11.7437C13.9064 11.9388 15.3449 11.9866 17.0515 12.0516Z" fill="white" stroke="#397AC0" stroke-width="2"/>
</svg>
