<svg width="37" height="36" viewBox="0 0 37 36" fill="none" xmlns="http://www.w3.org/2000/svg">
<path d="M12.3335 21C17.4421 21 21.5835 16.9706 21.5835 12C21.5835 7.02944 17.4421 3 12.3335 3C7.22486 3 3.0835 7.02944 3.0835 12C3.0835 16.9706 7.22486 21 12.3335 21Z" stroke="#397AC0" stroke-width="2" stroke-linecap="round" stroke-linejoin="round"/>
<path d="M27.8888 15.5547C29.3462 16.0833 30.643 16.961 31.6594 18.1065C32.6757 19.252 33.3788 20.6284 33.7036 22.1083C34.0284 23.5882 33.9644 25.124 33.5175 26.5735C33.0707 28.023 32.2554 29.3394 31.147 30.4011C30.0387 31.4628 28.6731 32.2354 27.1766 32.6475C25.68 33.0596 24.1008 33.0979 22.585 32.7589C21.0692 32.4198 19.6658 31.7143 18.5044 30.7077C17.3431 29.701 16.4614 28.4257 15.9409 26.9997" stroke="#397AC0" stroke-width="2" stroke-linecap="round" stroke-linejoin="round"/>
<path d="M10.7915 9H12.3332V15" stroke="#397AC0" stroke-width="2" stroke-linecap="round" stroke-linejoin="round"/>
<path d="M25.7615 20.8203L26.8407 21.8853L22.4932 26.1153" stroke="#397AC0" stroke-width="2" stroke-linecap="round" stroke-linejoin="round"/>
</svg>
