<svg width="28" height="28" viewBox="0 0 28 28" fill="none" xmlns="http://www.w3.org/2000/svg">
<g id="Cart">
<path id="Vector" fill-rule="evenodd" clip-rule="evenodd" d="M2.33317 2.3335C2.02375 2.3335 1.72701 2.45642 1.50821 2.67522C1.28942 2.89402 1.1665 3.19079 1.1665 3.50022C1.1665 3.80965 1.28942 4.10641 1.50821 4.32522C1.72701 4.54402 2.02375 4.66694 2.33317 4.66694H2.88384C3.13984 4.66689 3.38875 4.75104 3.5922 4.90643C3.79565 5.06182 3.94234 5.27982 4.00967 5.52682L4.495 7.30724L6.99984 16.4893V18.6676C6.99984 19.4773 7.274 20.2217 7.73484 20.8144C7.405 21.1863 7.17567 21.6363 7.06862 22.1217C6.96157 22.6071 6.98035 23.1119 7.12317 23.588C7.266 24.0641 7.52813 24.4958 7.88469 24.8422C8.24125 25.1885 8.6804 25.438 9.16046 25.5669C9.64052 25.6958 10.1456 25.6999 10.6276 25.5788C11.1097 25.4576 11.5528 25.2153 11.9149 24.8747C12.2771 24.5342 12.5461 24.1068 12.6966 23.633C12.8471 23.1592 12.874 22.6549 12.7748 22.1678H16.3915C16.3009 22.6132 16.3156 23.0736 16.4345 23.5122C16.5533 23.9509 16.7731 24.3557 17.0761 24.6944C17.3792 25.0331 17.7572 25.2963 18.18 25.463C18.6029 25.6296 19.0588 25.6952 19.5114 25.6544C19.9641 25.6136 20.4009 25.4676 20.7871 25.228C21.1733 24.9884 21.4982 24.6619 21.7358 24.2744C21.9735 23.887 22.1173 23.4494 22.1558 22.9966C22.1943 22.5437 22.1265 22.0881 21.9577 21.6661C22.079 21.4911 22.1502 21.2863 22.1635 21.0738C22.1768 20.8612 22.1316 20.6491 22.0329 20.4604C21.9343 20.2717 21.7858 20.1136 21.6037 20.0033C21.4216 19.8929 21.2128 19.8345 20.9998 19.8343H10.501C10.1916 19.8343 9.89484 19.7114 9.67605 19.4926C9.45725 19.2738 9.33434 18.9771 9.33434 18.6676V17.5009H21.2763C21.7883 17.501 22.2862 17.3327 22.6931 17.0219C23.1 16.7111 23.3934 16.2751 23.528 15.7811L25.4355 8.78081C25.5299 8.43443 25.5431 8.07094 25.4741 7.71862C25.4051 7.36631 25.2558 7.03466 25.0377 6.74949C24.8196 6.46433 24.5386 6.23334 24.2167 6.07449C23.8948 5.91565 23.5405 5.83323 23.1815 5.83367H6.51217L6.26134 4.91195C6.05914 4.17118 5.61896 3.51745 5.00863 3.05151C4.39829 2.58557 3.65168 2.33327 2.88384 2.3335H2.33317ZM19.2498 22.1678C19.0951 22.1678 18.9468 22.2292 18.8374 22.3386C18.728 22.4481 18.6665 22.5964 18.6665 22.7511C18.6665 22.9059 18.728 23.0542 18.8374 23.1636C18.9468 23.2731 19.0951 23.3345 19.2498 23.3345C19.4045 23.3345 19.5529 23.2731 19.6623 23.1636C19.7717 23.0542 19.8332 22.9059 19.8332 22.7511C19.8332 22.5964 19.7717 22.4481 19.6623 22.3386C19.5529 22.2292 19.4045 22.1678 19.2498 22.1678ZM21.2752 15.1674H9.05784L7.148 8.16711H23.1827L21.2752 15.1674ZM9.9165 22.1678C9.7618 22.1678 9.61342 22.2292 9.50403 22.3386C9.39463 22.4481 9.33317 22.5964 9.33317 22.7511C9.33317 22.9059 9.39463 23.0542 9.50403 23.1636C9.61342 23.2731 9.7618 23.3345 9.9165 23.3345C10.0712 23.3345 10.2196 23.2731 10.329 23.1636C10.4384 23.0542 10.4998 22.9059 10.4998 22.7511C10.4998 22.5964 10.4384 22.4481 10.329 22.3386C10.2196 22.2292 10.0712 22.1678 9.9165 22.1678Z" fill="white"/>
</g>
</svg>
