<svg 
 xmlns="http://www.w3.org/2000/svg"
 xmlns:xlink="http://www.w3.org/1999/xlink"
 width="25px" height="29px">
<path fill-rule="evenodd"  fill="rgb(255, 255, 255)"
 d="M22.924,5.566 C23.305,5.519 23.615,5.232 23.710,4.850 C23.805,4.492 23.686,4.086 23.400,3.847 C20.925,1.746 17.760,0.575 14.499,0.575 C6.859,0.575 0.624,6.808 0.624,14.498 C0.624,22.187 6.835,28.420 14.499,28.420 C17.926,28.420 21.234,27.130 23.805,24.814 C24.091,24.551 24.186,24.145 24.091,23.787 C23.995,23.429 23.662,23.166 23.281,23.118 C18.854,22.593 15.499,18.820 15.499,14.330 C15.475,9.912 18.617,6.235 22.924,5.566 L22.924,5.566 ZM13.523,14.307 C13.523,19.035 16.570,23.118 20.901,24.575 C18.997,25.793 16.784,26.462 14.499,26.462 C7.930,26.462 2.599,21.088 2.599,14.521 C2.599,7.954 7.954,2.581 14.499,2.581 C16.617,2.581 18.688,3.154 20.497,4.205 C16.356,5.734 13.523,9.698 13.523,14.307 Z"/>
</svg>