<svg 
 xmlns="http://www.w3.org/2000/svg"
 xmlns:xlink="http://www.w3.org/1999/xlink"
 width="64px" height="63px">
<path fill-rule="evenodd"  fill="rgb(10, 141, 215)"
 d="M62.264,37.965 L44.441,55.794 C44.353,55.881 44.252,55.951 44.140,56.003 L38.689,58.513 C38.294,58.694 37.828,58.610 37.521,58.303 C37.213,57.996 37.129,57.529 37.310,57.134 L39.821,51.682 C39.872,51.570 39.942,51.469 40.029,51.381 L57.853,33.553 C59.088,32.374 61.030,32.374 62.264,33.553 C63.482,34.771 63.482,36.747 62.264,37.965 ZM54.921,39.427 L41.631,52.721 L40.376,55.446 L43.100,54.191 L56.391,40.898 L54.921,39.427 ZM57.122,37.224 L56.394,37.952 L57.865,39.422 L58.593,38.695 L57.122,37.224 ZM60.797,35.019 C60.386,34.626 59.739,34.626 59.328,35.019 L58.592,35.755 L60.062,37.225 L60.797,36.490 C61.203,36.083 61.203,35.425 60.797,35.019 ZM38.254,22.208 L50.731,22.208 L50.731,24.288 L38.254,24.288 L38.254,22.208 ZM38.254,26.368 L50.731,26.368 L50.731,28.449 L38.254,28.449 L38.254,26.368 ZM50.731,36.768 L38.254,36.768 L38.254,34.688 L50.731,34.688 L50.731,36.768 ZM38.254,30.528 L50.731,30.528 L50.731,32.608 L38.254,32.608 L38.254,30.528 ZM36.174,36.768 L34.095,36.768 L34.095,34.688 L36.174,34.688 L36.174,36.768 ZM36.174,32.608 L34.095,32.608 L34.095,30.528 L36.174,30.528 L36.174,32.608 ZM36.174,28.449 L34.095,28.449 L34.095,26.368 L36.174,26.368 L36.174,28.449 ZM24.737,58.608 C18.994,58.608 14.339,53.952 14.339,48.209 C14.339,42.465 18.994,37.809 24.737,37.809 C30.477,37.815 35.128,42.467 35.134,48.209 C35.134,53.952 30.479,58.608 24.737,58.608 ZM24.737,39.889 C20.143,39.889 16.419,43.613 16.419,48.209 C16.419,52.804 20.143,56.528 24.737,56.528 C29.328,56.523 33.050,52.801 33.055,48.209 C33.055,43.613 29.331,39.889 24.737,39.889 ZM24.737,47.168 C27.069,47.168 28.896,48.538 28.896,50.289 C28.896,51.768 27.587,52.966 25.777,53.305 L25.777,54.448 L23.697,54.448 L23.697,53.305 C21.887,52.963 20.578,51.766 20.578,50.289 L22.657,50.289 C22.657,50.713 23.467,51.328 24.737,51.328 C26.007,51.328 26.816,50.713 26.816,50.289 C26.816,49.864 26.007,49.248 24.737,49.248 C22.405,49.248 20.578,47.879 20.578,46.128 C20.578,44.649 21.887,43.451 23.697,43.113 L23.697,41.968 L25.777,41.968 L25.777,43.113 C27.587,43.454 28.896,44.651 28.896,46.128 L26.816,46.128 C26.816,45.704 26.007,45.088 24.737,45.088 C23.467,45.088 22.657,45.704 22.657,46.128 C22.657,46.553 23.467,47.168 24.737,47.168 ZM36.174,24.288 L34.095,24.288 L34.095,22.208 L36.174,22.208 L36.174,24.288 ZM53.850,19.088 L41.373,19.088 L41.373,6.608 L29.936,6.608 L29.936,32.608 C29.936,34.332 28.539,35.729 26.816,35.729 L10.180,35.729 L10.180,60.689 L53.850,60.689 L53.850,48.209 L55.930,48.209 L55.930,62.769 L8.101,62.769 L8.101,35.729 L3.942,35.729 C2.219,35.729 0.822,34.332 0.822,32.608 L0.822,3.489 C0.822,1.766 2.219,0.369 3.942,0.369 L26.816,0.369 C28.539,0.369 29.936,1.766 29.936,3.489 L29.936,4.529 L42.843,4.529 L55.930,17.618 L55.930,33.649 L53.850,33.649 L53.850,19.088 ZM27.856,3.489 C27.856,2.914 27.391,2.449 26.816,2.449 L3.942,2.449 C3.367,2.449 2.902,2.914 2.902,3.489 L2.902,32.608 C2.902,33.183 3.367,33.649 3.942,33.649 L26.816,33.649 C27.391,33.649 27.856,33.183 27.856,32.608 L27.856,3.489 ZM43.453,8.079 L43.453,17.009 L52.380,17.009 L43.453,8.079 ZM3.942,3.489 L26.816,3.489 L26.816,10.769 L3.942,10.769 L3.942,3.489 ZM6.021,8.689 L24.737,8.689 L24.737,5.568 L6.021,5.568 L6.021,8.689 ZM7.061,11.808 L9.140,11.808 C10.289,11.808 11.220,12.740 11.220,13.889 L11.220,15.969 C11.220,17.117 10.289,18.048 9.140,18.048 L7.061,18.048 C5.912,18.048 4.981,17.117 4.981,15.969 L4.981,13.889 C4.981,12.740 5.912,11.808 7.061,11.808 ZM7.061,15.969 L9.140,15.969 L9.140,13.889 L7.061,13.889 L7.061,15.969 ZM7.061,19.088 L9.140,19.088 C10.289,19.088 11.220,20.020 11.220,21.169 L11.220,23.249 C11.220,24.397 10.289,25.329 9.140,25.329 L7.061,25.329 C5.912,25.329 4.981,24.397 4.981,23.249 L4.981,21.169 C4.981,20.020 5.912,19.088 7.061,19.088 ZM7.061,23.249 L9.140,23.249 L9.140,21.169 L7.061,21.169 L7.061,23.249 ZM7.061,26.368 L9.140,26.368 C10.289,26.368 11.220,27.300 11.220,28.449 L11.220,30.528 C11.220,31.677 10.289,32.608 9.140,32.608 L7.061,32.608 C5.912,32.608 4.981,31.677 4.981,30.528 L4.981,28.449 C4.981,27.300 5.912,26.368 7.061,26.368 ZM7.061,30.528 L9.140,30.528 L9.140,28.449 L7.061,28.449 L7.061,30.528 ZM14.339,11.808 L16.419,11.808 C17.567,11.808 18.498,12.740 18.498,13.889 L18.498,15.969 C18.498,17.117 17.567,18.048 16.419,18.048 L14.339,18.048 C13.191,18.048 12.260,17.117 12.260,15.969 L12.260,13.889 C12.260,12.740 13.191,11.808 14.339,11.808 ZM14.339,15.969 L16.419,15.969 L16.419,13.889 L14.339,13.889 L14.339,15.969 ZM14.339,19.088 L16.419,19.088 C17.567,19.088 18.498,20.020 18.498,21.169 L18.498,23.249 C18.498,24.397 17.567,25.329 16.419,25.329 L14.339,25.329 C13.191,25.329 12.260,24.397 12.260,23.249 L12.260,21.169 C12.260,20.020 13.191,19.088 14.339,19.088 ZM14.339,23.249 L16.419,23.249 L16.419,21.169 L14.339,21.169 L14.339,23.249 ZM14.339,26.368 L16.419,26.368 C17.567,26.368 18.498,27.300 18.498,28.449 L18.498,30.528 C18.498,31.677 17.567,32.608 16.419,32.608 L14.339,32.608 C13.191,32.608 12.260,31.677 12.260,30.528 L12.260,28.449 C12.260,27.300 13.191,26.368 14.339,26.368 ZM14.339,30.528 L16.419,30.528 L16.419,28.449 L14.339,28.449 L14.339,30.528 ZM21.618,11.808 L23.697,11.808 C24.845,11.808 25.777,12.740 25.777,13.889 L25.777,15.969 C25.777,17.117 24.845,18.048 23.697,18.048 L21.618,18.048 C20.469,18.048 19.538,17.117 19.538,15.969 L19.538,13.889 C19.538,12.740 20.469,11.808 21.618,11.808 ZM21.618,15.969 L23.697,15.969 L23.697,13.889 L21.618,13.889 L21.618,15.969 ZM21.618,19.088 L23.697,19.088 C24.845,19.088 25.777,20.020 25.777,21.169 L25.777,23.249 C25.777,24.397 24.845,25.329 23.697,25.329 L21.618,25.329 C20.469,25.329 19.538,24.397 19.538,23.249 L19.538,21.169 C19.538,20.020 20.469,19.088 21.618,19.088 ZM21.618,23.249 L23.697,23.249 L23.697,21.169 L21.618,21.169 L21.618,23.249 ZM21.618,26.368 L23.697,26.368 C24.845,26.368 25.777,27.300 25.777,28.449 L25.777,30.528 C25.777,31.677 24.845,32.608 23.697,32.608 L21.618,32.608 C20.469,32.608 19.538,31.677 19.538,30.528 L19.538,28.449 C19.538,27.300 20.469,26.368 21.618,26.368 ZM21.618,30.528 L23.697,30.528 L23.697,28.449 L21.618,28.449 L21.618,30.528 Z"/>
</svg>