<svg 
 xmlns="http://www.w3.org/2000/svg"
 xmlns:xlink="http://www.w3.org/1999/xlink"
 width="38px" height="38px">
<path fill-rule="evenodd"  fill="rgb(255, 255, 255)"
 d="M35.874,20.246 L32.182,20.246 C31.511,20.246 30.936,19.671 30.936,19.000 C30.936,18.329 31.511,17.753 32.182,17.753 L35.874,17.753 C36.545,17.753 37.120,18.329 37.120,19.000 C37.120,19.671 36.545,20.246 35.874,20.246 ZM29.210,10.563 C28.731,11.042 27.916,11.042 27.485,10.563 C27.005,10.083 27.005,9.316 27.485,8.837 L30.121,6.201 C30.600,5.721 31.367,5.721 31.847,6.201 C32.326,6.680 32.326,7.447 31.847,7.926 L29.210,10.563 ZM25.423,25.423 C23.793,27.101 21.492,28.108 19.000,28.108 C16.507,28.108 14.206,27.053 12.576,25.423 C10.946,23.793 9.892,21.493 9.892,19.000 C9.892,16.507 10.946,14.206 12.576,12.576 C14.206,10.898 16.507,9.892 19.000,9.892 C21.492,9.892 23.793,10.946 25.423,12.576 C27.101,14.206 28.108,16.507 28.108,19.000 C28.108,21.493 27.053,23.793 25.423,25.423 ZM23.698,14.302 C22.499,13.104 20.821,12.384 19.000,12.384 C17.178,12.384 15.500,13.104 14.302,14.302 C13.103,15.500 12.384,17.178 12.384,19.000 C12.384,20.821 13.103,22.499 14.302,23.697 C15.500,24.896 17.178,25.615 19.000,25.615 C20.821,25.615 22.499,24.896 23.698,23.697 C24.896,22.499 25.615,20.821 25.615,19.000 C25.615,17.178 24.896,15.500 23.698,14.302 ZM19.000,7.063 C18.329,7.063 17.753,6.488 17.753,5.817 L17.753,2.126 C17.753,1.455 18.329,0.880 19.000,0.880 C19.671,0.880 20.246,1.455 20.246,2.126 L20.246,5.817 C20.246,6.488 19.671,7.063 19.000,7.063 ZM8.789,10.563 L6.153,7.926 C5.673,7.447 5.673,6.680 6.153,6.201 C6.632,5.721 7.399,5.721 7.878,6.201 L10.515,8.837 C10.994,9.316 10.994,10.083 10.515,10.563 C10.035,11.042 9.269,11.042 8.789,10.563 ZM7.063,19.000 C7.063,19.671 6.488,20.246 5.817,20.246 L2.126,20.246 C1.407,20.246 0.880,19.671 0.880,19.000 C0.880,18.329 1.455,17.753 2.126,17.753 L5.817,17.753 C6.488,17.753 7.063,18.329 7.063,19.000 ZM8.789,27.436 C9.269,26.957 10.084,26.957 10.515,27.436 C10.994,27.916 10.994,28.683 10.515,29.162 L7.878,31.799 C7.399,32.278 6.632,32.278 6.153,31.799 C5.673,31.319 5.673,30.552 6.153,30.073 L8.789,27.436 ZM19.000,30.936 C19.671,30.936 20.246,31.511 20.246,32.182 L20.246,35.873 C20.246,36.545 19.671,37.120 19.000,37.120 C18.329,37.120 17.753,36.545 17.753,35.873 L17.753,32.182 C17.753,31.511 18.329,30.936 19.000,30.936 ZM29.162,27.436 L31.799,30.073 C32.278,30.552 32.278,31.319 31.799,31.799 C31.320,32.278 30.553,32.278 30.073,31.799 L27.437,29.162 C26.957,28.683 26.957,27.916 27.437,27.436 C27.916,26.957 28.731,26.957 29.162,27.436 Z"/>
</svg>