<svg 
 xmlns="http://www.w3.org/2000/svg"
 xmlns:xlink="http://www.w3.org/1999/xlink"
 width="69px" height="72px">
<path fill-rule="evenodd"  fill="rgb(10, 141, 215)"
 d="M61.138,71.767 C60.987,71.836 60.822,71.880 60.646,71.880 L49.903,71.880 C47.021,71.880 44.610,69.824 44.056,67.101 L24.716,67.101 C24.162,69.824 21.751,71.880 18.869,71.880 L8.126,71.880 C7.947,71.880 7.781,71.834 7.628,71.763 C7.385,71.725 7.142,71.688 6.903,71.628 C4.739,71.085 2.915,69.731 1.769,67.814 C0.622,65.898 0.290,63.650 0.834,61.482 L7.254,35.750 C7.938,33.102 10.314,31.261 13.035,31.261 C13.038,31.261 13.042,31.261 13.047,31.261 L27.224,30.156 L27.224,26.110 C25.033,24.141 23.644,21.293 23.644,18.120 L23.644,13.342 C23.644,13.341 23.643,13.341 23.643,13.341 C23.643,13.341 23.644,13.340 23.644,13.340 L23.644,12.146 L23.644,6.173 C23.644,2.879 26.321,0.200 29.612,0.200 L39.160,0.200 C42.451,0.200 45.129,2.879 45.129,6.173 L45.129,12.146 L45.129,12.146 L45.129,18.120 C45.129,21.294 43.739,24.142 41.547,26.112 L41.547,30.156 L55.820,31.265 C58.455,31.301 60.832,33.098 61.515,35.741 L67.939,61.484 C68.106,62.147 68.191,62.831 68.190,63.517 C68.189,67.683 65.126,71.137 61.138,71.767 ZM49.903,69.490 L59.452,69.490 L59.452,62.323 C59.452,61.663 58.917,61.128 58.258,61.128 C57.600,61.128 57.065,61.663 57.065,62.322 L57.065,65.906 C57.065,66.013 57.030,66.109 57.004,66.207 C56.877,66.685 56.478,67.036 55.971,67.081 C55.937,67.084 55.907,67.101 55.871,67.101 L55.871,67.101 L46.526,67.101 C47.019,68.491 48.347,69.490 49.903,69.490 ZM23.644,64.712 L45.129,64.712 L54.678,64.712 L54.678,46.792 L40.354,46.792 L40.354,52.765 C40.354,53.426 39.819,53.960 39.160,53.960 L29.612,53.960 C28.953,53.960 28.418,53.426 28.418,52.765 L28.418,46.792 L14.095,46.792 L14.095,62.323 L14.095,64.712 L23.644,64.712 ZM14.095,38.429 L14.095,44.402 L28.418,44.402 L28.418,38.429 L14.095,38.429 ZM30.805,38.429 L30.805,44.402 L37.967,44.402 L37.967,38.429 L30.805,38.429 ZM37.967,46.792 L30.805,46.792 L30.805,51.570 L37.967,51.570 L37.967,46.792 ZM40.354,44.402 L54.678,44.402 L54.678,38.429 L40.354,38.429 L40.354,44.402 ZM9.320,69.490 L18.869,69.490 C20.426,69.490 21.753,68.491 22.246,67.101 L12.901,67.101 L12.901,67.101 C12.242,67.101 11.707,66.567 11.707,65.906 L11.707,62.323 C11.707,61.663 11.171,61.128 10.514,61.128 C9.856,61.128 9.320,61.663 9.320,62.323 L9.320,69.490 ZM3.149,62.062 C2.761,63.611 2.999,65.217 3.818,66.586 C4.534,67.785 5.635,68.649 6.933,69.112 L6.933,62.323 C6.933,60.346 8.540,58.738 10.514,58.738 C10.934,58.738 11.332,58.825 11.707,58.959 L11.707,53.960 L5.171,53.960 L3.149,62.062 ZM13.137,33.646 C11.406,33.646 9.978,34.753 9.568,36.338 L5.767,51.570 L11.707,51.570 L11.707,37.234 C11.707,36.575 12.242,36.040 12.901,36.040 L29.612,36.040 L31.505,36.040 L27.962,32.494 L13.137,33.646 ZM34.386,35.545 L39.159,30.767 L39.159,27.738 C37.719,28.457 36.102,28.872 34.386,28.872 C32.670,28.872 31.052,28.456 29.612,27.737 L29.612,30.766 L34.386,35.545 ZM42.741,6.173 C42.741,4.197 41.135,2.589 39.161,2.589 L29.612,2.589 C27.638,2.589 26.031,4.197 26.031,6.173 L26.031,8.593 C27.031,7.835 28.263,7.368 29.612,7.368 L39.160,7.368 C40.509,7.368 41.741,7.835 42.741,8.593 L42.741,6.173 ZM26.236,12.146 L42.537,12.146 C42.044,10.756 40.717,9.757 39.160,9.757 L29.612,9.757 C28.055,9.757 26.728,10.756 26.236,12.146 ZM42.741,18.120 L42.741,14.536 L34.386,14.536 L34.386,18.120 L35.580,18.120 L35.580,20.509 L33.192,20.509 C32.534,20.509 31.999,19.974 31.999,19.315 L31.999,14.536 L26.031,14.536 L26.031,18.120 C26.031,22.731 29.779,26.482 34.386,26.482 C38.993,26.482 42.741,22.731 42.741,18.120 ZM59.202,36.329 C58.795,34.756 57.370,33.650 55.737,33.650 C55.735,33.650 55.733,33.650 55.730,33.650 L40.808,32.495 L37.267,36.040 L39.160,36.040 L55.871,36.040 C56.531,36.040 57.065,36.575 57.065,37.234 L57.065,51.570 L63.006,51.570 L59.202,36.329 ZM65.624,62.064 L63.602,53.960 L57.065,53.960 L57.065,58.959 C57.440,58.825 57.838,58.738 58.259,58.738 C60.233,58.738 61.839,60.346 61.839,62.323 L61.839,69.119 C64.142,68.289 65.802,66.103 65.803,63.517 C65.803,63.027 65.742,62.539 65.624,62.064 ZM47.515,62.323 L45.127,62.323 L45.127,59.933 L47.515,59.933 L47.515,62.323 ZM52.289,62.323 L49.902,62.323 L49.902,59.933 L52.289,59.933 L52.289,62.323 Z"/>
</svg>