<svg 
 xmlns="http://www.w3.org/2000/svg"
 xmlns:xlink="http://www.w3.org/1999/xlink"
 width="63px" height="62px">
<path fill-rule="evenodd"  fill="rgb(10, 141, 215)"
 d="M61.252,13.391 L59.077,15.569 C58.184,16.464 56.927,16.803 55.737,16.534 L54.002,26.380 C53.614,28.577 52.577,30.569 51.005,32.143 L48.905,34.247 C47.557,35.596 45.692,36.211 43.815,35.945 C44.070,37.751 43.506,39.652 42.122,41.038 C40.763,42.401 38.892,43.000 37.032,42.737 C37.288,44.543 36.724,46.445 35.340,47.831 C33.988,49.185 32.120,49.792 30.251,49.528 C30.506,51.334 29.942,53.236 28.558,54.623 L23.729,59.460 C20.456,62.737 15.132,62.736 11.859,59.460 L3.382,50.970 C0.110,47.692 0.110,42.360 3.382,39.083 L8.212,34.247 C9.597,32.861 11.495,32.296 13.299,32.552 C13.034,30.671 13.647,28.804 14.994,27.455 C16.382,26.066 18.264,25.501 20.080,25.757 C19.823,23.934 20.390,22.050 21.777,20.662 C23.165,19.272 25.048,18.708 26.864,18.964 C26.609,17.158 27.173,15.257 28.558,13.871 L30.659,11.767 C32.230,10.193 34.220,9.155 36.412,8.766 L46.245,7.028 C45.976,5.834 46.317,4.576 47.209,3.683 L49.384,1.505 C50.789,0.097 53.064,0.098 54.470,1.505 L61.252,8.297 C62.658,9.705 62.658,11.983 61.252,13.391 ZM9.908,35.945 L5.077,40.781 C2.740,43.122 2.740,46.931 5.077,49.272 L13.555,57.762 C15.893,60.102 19.696,60.103 22.033,57.762 L26.862,52.925 C28.265,51.520 28.265,49.235 26.862,47.830 L14.994,35.945 C13.592,34.541 11.310,34.541 9.908,35.945 ZM21.776,29.153 C21.776,29.153 21.776,29.152 21.776,29.152 C20.368,27.746 18.094,27.747 16.690,29.153 C15.284,30.561 15.285,32.840 16.690,34.247 L28.558,46.133 C29.965,47.542 32.242,47.536 33.644,46.133 C35.046,44.728 35.046,42.443 33.644,41.038 C33.644,41.038 33.644,41.038 33.644,41.038 L33.644,41.038 L21.776,29.153 ZM23.472,22.361 C22.065,23.769 22.066,26.047 23.472,27.455 L35.340,39.340 C36.745,40.749 39.022,40.749 40.426,39.341 C41.829,37.936 41.829,35.651 40.427,34.247 L28.558,22.361 C27.151,20.952 24.878,20.953 23.472,22.361 ZM36.830,11.131 C35.124,11.433 33.577,12.240 32.355,13.465 L30.253,15.569 C28.851,16.973 28.851,19.258 30.253,20.663 L42.122,32.549 C43.525,33.954 45.807,33.954 47.209,32.549 L49.309,30.445 C50.533,29.221 51.339,27.671 51.641,25.963 L53.550,15.127 L47.650,9.219 L36.830,11.131 ZM59.557,9.995 L52.774,3.203 C52.306,2.734 51.548,2.734 51.079,3.203 L48.905,5.381 C48.436,5.850 48.436,6.609 48.905,7.079 L55.687,13.871 C56.155,14.340 56.913,14.340 57.382,13.871 L59.557,11.693 C60.026,11.223 60.024,10.464 59.557,9.995 ZM44.665,28.304 C44.197,27.835 44.197,27.074 44.665,26.606 C45.134,26.137 45.893,26.137 46.361,26.606 C46.829,27.074 46.829,27.835 46.361,28.304 C45.893,28.773 45.134,28.773 44.665,28.304 ZM41.274,24.907 L35.486,19.111 C35.018,18.642 35.018,17.881 35.486,17.413 C35.955,16.944 36.713,16.944 37.182,17.413 L42.970,23.210 C43.438,23.678 43.438,24.438 42.970,24.907 C42.502,25.376 41.743,25.376 41.274,24.907 ZM54.044,35.444 C54.249,35.042 54.662,34.789 55.112,34.789 C55.563,34.789 55.975,35.042 56.180,35.444 L61.522,45.925 C63.950,50.683 60.489,56.401 55.112,56.401 C49.734,56.401 46.274,50.682 48.702,45.925 L54.044,35.444 ZM55.112,53.999 C58.704,53.999 61.000,50.180 59.387,47.017 L55.112,38.630 L50.838,47.017 C49.222,50.182 51.523,53.999 55.112,53.999 Z"/>
</svg>