<svg 
 xmlns="http://www.w3.org/2000/svg"
 xmlns:xlink="http://www.w3.org/1999/xlink"
 width="52px" height="60px">
<path fill-rule="evenodd"  fill="rgb(10, 141, 215)"
 d="M34.000,33.000 L34.000,55.595 C34.000,58.023 32.024,60.000 29.594,60.000 L4.405,60.000 C1.976,60.000 -0.000,58.023 -0.000,55.594 L-0.000,4.405 C-0.000,1.977 1.976,-0.000 4.405,-0.000 L29.595,-0.000 C32.024,-0.000 34.000,1.977 34.000,4.405 L34.000,12.000 L52.000,12.000 L52.000,33.000 L34.000,33.000 ZM2.000,55.595 C2.000,56.921 3.079,58.000 4.405,58.000 L29.595,58.000 C30.921,58.000 32.000,56.921 32.000,55.595 L32.000,48.000 L2.000,48.000 L2.000,55.595 ZM32.000,4.405 C32.000,3.079 30.921,2.000 29.594,2.000 L4.405,2.000 C3.079,2.000 2.000,3.079 2.000,4.405 L2.000,6.000 L32.000,6.000 L32.000,4.405 ZM32.000,8.000 L2.000,8.000 L2.000,46.000 L32.000,46.000 L32.000,33.000 L27.333,33.000 L18.000,40.000 L18.000,33.000 L14.000,33.000 L14.000,12.000 L32.000,12.000 L32.000,8.000 ZM50.000,14.000 L34.000,14.000 L16.000,14.000 L16.000,31.000 L20.000,31.000 L20.000,36.000 L26.667,31.000 L34.000,31.000 L50.000,31.000 L50.000,14.000 ZM20.000,25.000 C20.000,24.447 20.448,24.000 21.000,24.000 L45.000,24.000 C45.552,24.000 46.000,24.447 46.000,25.000 C46.000,25.553 45.552,26.000 45.000,26.000 L21.000,26.000 C20.448,26.000 20.000,25.553 20.000,25.000 ZM31.000,21.000 L21.000,21.000 C20.448,21.000 20.000,20.553 20.000,20.000 C20.000,19.447 20.448,19.000 21.000,19.000 L31.000,19.000 C31.552,19.000 32.000,19.447 32.000,20.000 C32.000,20.553 31.552,21.000 31.000,21.000 ZM13.000,3.000 L17.000,3.000 C17.552,3.000 18.000,3.447 18.000,4.000 C18.000,4.553 17.552,5.000 17.000,5.000 L13.000,5.000 C12.448,5.000 12.000,4.553 12.000,4.000 C12.000,3.447 12.448,3.000 13.000,3.000 ZM20.000,3.000 L21.000,3.000 C21.552,3.000 22.000,3.447 22.000,4.000 C22.000,4.553 21.552,5.000 21.000,5.000 L20.000,5.000 C19.448,5.000 19.000,4.553 19.000,4.000 C19.000,3.447 19.448,3.000 20.000,3.000 ZM16.000,57.000 C13.794,57.000 12.000,55.206 12.000,53.000 C12.000,50.794 13.794,49.000 16.000,49.000 C18.206,49.000 20.000,50.794 20.000,53.000 C20.000,55.206 18.206,57.000 16.000,57.000 ZM16.000,51.000 C14.897,51.000 14.000,51.897 14.000,53.000 C14.000,54.103 14.897,55.000 16.000,55.000 C17.103,55.000 18.000,54.103 18.000,53.000 C18.000,51.897 17.103,51.000 16.000,51.000 Z"/>
</svg>