<svg 
 xmlns="http://www.w3.org/2000/svg"
 xmlns:xlink="http://www.w3.org/1999/xlink"
 width="72px" height="56px">
<path fill-rule="evenodd"  fill="rgb(10, 141, 215)"
 d="M50.400,39.920 L45.600,39.920 L45.600,37.520 L50.400,37.520 L50.400,39.920 ZM68.400,48.320 L65.904,48.320 C65.305,52.447 61.771,55.512 57.600,55.520 L-0.000,55.520 L-0.000,53.120 L18.133,53.120 C16.814,51.832 15.958,50.144 15.696,48.320 L13.200,48.320 C11.212,48.320 9.600,46.708 9.600,44.720 L9.600,33.920 L12.000,33.920 L12.000,44.720 C12.000,45.382 12.537,45.920 13.200,45.920 L15.696,45.920 C16.225,42.234 19.121,39.338 22.807,38.808 C27.393,38.150 31.645,41.333 32.304,45.920 L49.296,45.920 C49.825,42.234 52.721,39.338 56.407,38.808 C60.994,38.150 65.245,41.333 65.904,45.920 L68.400,45.920 C69.063,45.920 69.600,45.382 69.600,44.720 L69.600,35.120 L51.600,35.120 C50.274,35.120 49.200,34.045 49.200,32.720 L49.200,21.920 C49.200,20.594 50.274,19.520 51.600,19.520 L57.103,19.520 L55.055,17.471 C54.829,17.246 54.524,17.119 54.205,17.120 L42.000,17.120 L42.000,35.120 L39.600,35.120 L39.600,17.120 L33.600,17.120 L33.600,14.720 L54.205,14.720 C55.161,14.717 56.078,15.096 56.752,15.774 L71.648,30.671 C71.873,30.896 72.000,31.201 72.000,31.520 L72.000,44.720 C72.000,46.708 70.388,48.320 68.400,48.320 ZM24.000,41.120 C20.686,41.120 18.000,43.806 18.000,47.120 C18.004,50.432 20.688,53.116 24.000,53.120 C27.314,53.120 30.000,50.433 30.000,47.120 C30.000,43.806 27.314,41.120 24.000,41.120 ZM32.304,48.320 C32.042,50.144 31.185,51.832 29.867,53.120 L51.733,53.120 C50.414,51.832 49.558,50.144 49.296,48.320 L32.304,48.320 ZM57.600,41.120 C54.286,41.120 51.600,43.806 51.600,47.120 C51.600,50.433 54.286,53.120 57.600,53.120 C60.912,53.116 63.596,50.432 63.600,47.120 C63.600,43.806 60.914,41.120 57.600,41.120 ZM69.600,32.017 L59.503,21.920 L51.600,21.920 L51.600,32.720 L69.600,32.720 L69.600,32.017 ZM56.400,45.920 L58.800,45.920 L58.800,48.320 L56.400,48.320 L56.400,45.920 ZM22.800,45.920 L25.200,45.920 L25.200,48.320 L22.800,48.320 L22.800,45.920 ZM15.600,31.520 C6.988,31.510 0.010,24.531 -0.000,15.919 C-0.000,7.304 6.984,0.320 15.600,0.320 C24.216,0.320 31.200,7.304 31.200,15.919 C31.200,24.535 24.216,31.520 15.600,31.520 ZM15.600,2.720 C8.313,2.728 2.408,8.633 2.400,15.919 C2.400,23.210 8.310,29.120 15.600,29.120 C22.890,29.120 28.800,23.210 28.800,15.919 C28.800,8.629 22.890,2.720 15.600,2.720 ZM15.600,26.720 C15.282,26.720 14.976,26.593 14.752,26.368 C13.979,25.595 7.200,18.668 7.200,13.520 C7.200,8.880 10.961,5.119 15.600,5.119 C20.239,5.119 24.000,8.880 24.000,13.520 C24.000,18.668 17.221,25.595 16.448,26.368 C16.223,26.593 15.918,26.720 15.600,26.720 ZM15.600,7.520 C12.288,7.524 9.604,10.208 9.600,13.520 C9.600,16.599 13.376,21.357 15.600,23.781 C17.824,21.357 21.600,16.599 21.600,13.520 C21.596,10.208 18.912,7.524 15.600,7.520 ZM12.000,13.520 C12.000,11.532 13.612,9.920 15.600,9.920 C17.588,9.920 19.200,11.532 19.200,13.520 C19.200,15.508 17.588,17.120 15.600,17.120 C13.612,17.120 12.000,15.508 12.000,13.520 ZM16.800,13.520 C16.800,12.857 16.263,12.320 15.600,12.320 C14.937,12.320 14.400,12.857 14.400,13.520 C14.400,14.182 14.937,14.720 15.600,14.720 C16.263,14.720 16.800,14.182 16.800,13.520 ZM6.000,32.720 L6.000,35.120 L3.600,35.120 L3.600,32.720 L6.000,32.720 ZM6.000,39.920 L2.400,39.920 L2.400,37.520 L6.000,37.520 L6.000,39.920 ZM6.000,44.720 L-0.000,44.720 L-0.000,42.320 L6.000,42.320 L6.000,44.720 Z"/>
</svg>