<svg 
 xmlns="http://www.w3.org/2000/svg"
 xmlns:xlink="http://www.w3.org/1999/xlink"
 width="58px" height="66px">
<path fill-rule="evenodd"  fill="rgb(10, 141, 215)"
 d="M0.925,65.240 L3.217,51.485 C3.916,47.295 6.855,43.856 10.886,42.513 L11.953,42.157 C10.542,41.190 9.668,39.904 9.609,39.816 L9.064,38.997 L9.850,38.408 C12.196,36.649 13.596,33.849 13.596,30.920 L15.677,30.920 C15.677,34.142 14.292,37.233 11.928,39.387 C12.583,40.106 13.732,41.094 15.029,41.132 L19.838,39.530 L19.838,38.200 L21.919,38.200 L21.919,40.154 L23.471,46.360 L27.672,41.319 L30.729,41.319 L34.930,46.360 L36.482,40.154 L36.482,38.200 L38.563,38.200 L38.563,39.530 L43.375,41.134 C44.660,41.069 45.815,40.101 46.471,39.384 C45.280,38.301 44.325,36.974 43.679,35.496 L45.587,34.663 C46.232,36.142 47.257,37.437 48.550,38.408 L49.336,38.997 L48.791,39.816 C48.731,39.905 47.859,41.190 46.446,42.157 L47.514,42.513 C51.545,43.856 54.484,47.295 55.183,51.485 L57.475,65.240 L0.925,65.240 ZM53.130,51.828 C52.557,48.400 50.153,45.587 46.855,44.487 L43.071,43.226 C43.042,43.224 43.014,43.225 42.985,43.223 L42.987,43.197 L38.259,41.621 L35.954,50.839 L29.753,43.400 L28.648,43.400 L22.447,50.839 L20.142,41.621 L15.405,43.199 L15.407,43.217 C15.387,43.218 15.367,43.218 15.347,43.219 L11.545,44.486 C8.246,45.586 5.842,48.399 5.270,51.827 L3.382,63.160 L10.891,63.160 C10.660,62.410 10.476,61.401 10.476,60.040 C10.476,56.530 12.763,54.202 12.861,54.105 L13.596,54.840 L14.335,55.572 C14.317,55.591 12.556,57.413 12.556,60.040 C12.556,61.754 12.895,62.708 13.121,63.160 L28.160,63.160 L28.160,45.480 L30.241,45.480 L30.241,63.160 L45.284,63.160 C45.501,62.721 45.845,61.765 45.845,60.040 C45.845,57.380 44.087,55.594 44.069,55.575 L45.540,54.105 C45.638,54.202 47.925,56.530 47.925,60.040 C47.925,61.401 47.741,62.410 47.510,63.160 L55.019,63.160 L53.130,51.828 ZM32.321,59.000 L34.402,59.000 L34.402,61.080 L32.321,61.080 L32.321,59.000 ZM32.321,51.720 L34.402,51.720 L34.402,53.800 L32.321,53.800 L32.321,51.720 ZM45.845,28.840 L44.804,28.840 L44.804,29.880 C44.804,32.747 42.471,35.080 39.603,35.080 L37.953,35.080 L35.316,37.716 C34.334,38.698 33.028,39.240 31.638,39.240 L26.763,39.240 C25.373,39.240 24.067,38.698 23.085,37.716 L19.029,33.661 C17.662,32.295 16.686,30.642 16.151,28.840 L12.556,28.840 C9.688,28.840 7.355,26.507 7.355,23.640 L7.355,19.480 C7.355,16.613 9.688,14.280 12.556,14.280 L13.768,14.280 C14.796,6.626 21.385,0.760 29.200,0.760 C37.016,0.760 43.605,6.626 44.633,14.280 L45.845,14.280 C48.713,14.280 51.046,16.613 51.046,19.480 L51.046,23.640 C51.046,26.507 48.713,28.840 45.845,28.840 ZM11.516,16.551 C10.308,16.982 9.435,18.126 9.435,19.480 L9.435,23.639 C9.435,24.993 10.308,26.137 11.516,26.567 L11.516,16.551 ZM42.724,29.880 L42.724,28.840 L42.250,28.840 C41.803,30.346 41.043,31.742 40.010,32.959 C41.537,32.757 42.724,31.462 42.724,29.880 ZM17.758,25.572 C17.758,28.072 18.732,30.423 20.500,32.191 L24.556,36.246 C25.144,36.835 25.929,37.160 26.763,37.160 L31.638,37.160 C32.472,37.160 33.255,36.835 33.845,36.246 L35.011,35.080 L26.080,35.080 L26.080,33.000 L37.092,33.000 L37.901,32.191 C39.669,30.423 40.643,28.072 40.643,25.572 L40.643,19.480 L40.643,18.440 L38.152,18.440 C35.824,18.440 33.641,17.442 32.126,15.727 L30.655,16.831 C29.269,17.869 27.555,18.440 25.824,18.440 L23.999,18.440 C20.557,18.440 17.758,21.238 17.758,24.680 L17.758,25.572 ZM15.677,25.572 L15.677,19.480 L15.677,16.360 L13.596,16.360 L13.596,26.760 L15.677,26.760 L15.677,25.572 ZM29.200,2.840 C22.522,2.840 16.870,7.783 15.860,14.280 L17.758,14.280 L17.758,19.195 C19.284,17.461 21.513,16.360 23.999,16.360 L25.824,16.360 C27.106,16.360 28.380,15.936 29.405,15.167 L32.577,12.787 L33.187,13.702 C34.296,15.367 36.151,16.360 38.152,16.360 L40.643,16.360 L40.643,14.280 L42.541,14.280 C41.531,7.783 35.879,2.840 29.200,2.840 ZM44.804,16.360 L42.724,16.360 L42.724,19.480 L42.724,25.572 L42.724,26.760 L44.804,26.760 L44.804,16.360 ZM48.966,19.480 C48.966,18.126 48.093,16.982 46.885,16.552 L46.885,26.569 C48.093,26.138 48.966,24.994 48.966,23.640 L48.966,19.480 Z"/>
</svg>