<svg 
 xmlns="http://www.w3.org/2000/svg"
 xmlns:xlink="http://www.w3.org/1999/xlink"
 width="20px" height="33px">
<path fill-rule="evenodd"  fill="rgb(255, 255, 255)"
 d="M3.159,32.835 C3.313,32.935 3.488,32.984 3.661,32.984 C3.928,32.984 4.193,32.867 4.375,32.646 L19.120,14.741 C19.352,14.460 19.401,14.097 19.248,13.765 C19.095,13.434 18.767,13.250 18.406,13.250 L12.536,13.250 L18.027,2.036 C18.234,1.615 18.104,1.090 17.722,0.823 C17.339,0.557 16.822,0.610 16.510,0.956 L0.906,18.219 C0.656,18.495 0.591,18.920 0.740,19.262 C0.888,19.605 1.223,19.852 1.591,19.852 L8.395,19.852 L2.822,31.663 C2.620,32.092 2.764,32.578 3.159,32.835 ZM10.709,19.259 C10.846,18.967 10.826,18.652 10.656,18.378 C10.486,18.103 10.189,17.966 9.870,17.966 L3.705,17.966 L13.420,7.187 L10.201,13.731 C10.058,14.023 10.073,14.391 10.243,14.669 C10.412,14.946 10.712,15.136 11.034,15.136 L16.418,15.136 L7.683,25.715 L10.709,19.259 Z"/>
</svg>