<svg width="28" height="28" viewBox="0 0 28 28" fill="none" xmlns="http://www.w3.org/2000/svg">
<g id="heart">
<path id="Icon" fill-rule="evenodd" clip-rule="evenodd" d="M14.6363 4.41736C11.7879 1.83088 7.40747 1.92471 4.67022 4.69884C1.83714 7.57009 1.83714 12.2253 4.67022 15.0965L12.9264 23.464C13.8708 24.421 15.4019 24.421 16.3462 23.464L24.6024 15.0965C27.4355 12.2253 27.4355 7.57009 24.6024 4.69884C21.8652 1.92471 17.4847 1.83088 14.6363 4.41736ZM13.2198 6.43179C11.3311 4.51763 8.26885 4.51763 6.38013 6.43179C4.49141 8.34596 4.49141 11.4494 6.38013 13.3636L14.6363 21.731L22.8925 13.3636C24.7812 11.4494 24.7812 8.34596 22.8925 6.43179C21.0038 4.51763 17.9416 4.51763 16.0529 6.43179L15.4913 7.00094C15.0191 7.47948 14.2535 7.47948 13.7814 7.00094L13.2198 6.43179Z" fill="#0A8DD8"/>
</g>
</svg>
